<?xml version="1.0" encoding="UTF-8" standalone="no"?>
<!DOCTYPE svg PUBLIC "-//W3C//DTD SVG 1.1//EN" "http://www.w3.org/Graphics/SVG/1.1/DTD/svg11.dtd">
<svg version="1.1" xmlns="http://www.w3.org/2000/svg" xmlns:xlink="http://www.w3.org/1999/xlink" preserveAspectRatio="xMidYMid meet" viewBox="0 0 640 640" width="640" height="640"><defs><path d="M112 304.48C112 298.01 120.21 295.23 124.14 300.37C134.94 314.52 159.01 346.04 170.76 361.43C174.79 366.71 182.39 367.6 187.53 363.39C206.8 347.61 250.36 311.94 268.42 297.15C278.25 289.1 284.1 277.18 284.47 264.49C285.07 243.49 286.21 203.79 286.78 183.61C287.17 170.18 298.17 159.48 311.61 159.48C346.84 159.48 440.91 159.48 479.27 159.48C483.95 159.48 487.75 163.28 487.75 167.97C487.75 184.94 487.75 219.17 487.75 234.09C487.75 244.83 479.82 253.91 469.18 255.34C452.61 257.58 414.32 262.75 395.96 265.23C394.41 265.44 394.41 267.68 395.96 267.89C416.21 270.76 462.6 277.32 481.67 280.01C485.51 280.56 485.99 285.92 482.3 287.14C476.36 289.09 467.79 291.92 460.43 294.34C455.24 296.05 449.82 296.92 444.35 296.92C431.16 296.92 401.22 296.92 388.38 296.92C383.66 296.92 380.49 301.77 382.39 306.09C390.65 324.87 410.5 370.03 418.53 388.31C420.07 391.81 416.14 395.18 412.91 393.12C406 388.72 393.55 380.77 386.02 375.97C382.96 374.02 379.02 376.51 379.46 380.1C379.95 384.08 379.24 378.32 379.46 380.13C381.03 392.92 377.89 405.85 370.63 416.5C358.94 433.65 329.72 476.51 316.67 495.65C313.93 499.67 313.8 504.93 316.33 509.09C321.07 516.85 329.25 530.24 333.52 537.23C336.37 541.9 333.01 547.89 327.54 547.89C322.23 547.89 316.8 547.89 310.99 547.89C304.98 547.89 299.61 544.16 297.53 538.53C292.08 523.86 280.17 491.75 274.96 477.72C272.24 470.36 264.84 465.82 257.04 466.7C254.8 466.96 254.93 466.94 251.08 467.38C247.86 467.74 245.13 469.93 244.07 473C240.58 483.09 233.48 503.62 230.4 512.53C228.05 519.33 229.31 526.87 233.76 532.53C236.17 535.6 236.35 535.84 238.78 538.94C241.63 542.57 239.04 547.89 234.43 547.89C229.12 547.89 221.57 547.89 215.51 547.89C211.11 547.89 207.36 544.7 206.65 540.36C204.3 525.88 200.06 499.75 198.1 487.72C196.02 474.88 189.96 463.02 180.79 453.8C167.03 439.97 134.47 407.25 119.37 392.06C114.65 387.32 112 380.9 112 374.21C112 356.27 112 320.51 112 304.48Z" id="a3sQGxeqFS"></path><path d="M342.89 198.48C342.89 207.58 335.5 214.98 326.39 214.98C317.29 214.98 309.89 207.58 309.89 198.48C309.89 189.37 317.29 181.98 326.39 181.98C335.5 181.98 342.89 189.37 342.89 198.48Z" id="egpbnF3Cz"></path></defs><g><g><g><use xlink:href="#a3sQGxeqFS" opacity="1" fill="#00930b" fill-opacity="1"></use></g><g><use xlink:href="#egpbnF3Cz" opacity="1" fill="#000000" fill-opacity="1"></use></g></g></g></svg>